# xmcd
#
# Track frame offsets: 
#        150
#        10410
#        19760
#        29893
#        42496
#        54613
#        68214
#        79281
#        89048
#        101756
#        113907
#        126494
#        138986
#        150929
#        162497
#        173392
#        188109
#        199761
#        214335
#        225181
#        236993
#        247633
#        261981
#        270279
#        282822
#        294744
#        304582
#        304886
#        315466
#
# Disc length: 4357 seconds
#
# Revision: 0
# Processed by: cddbd v1.5.2PL0 Copyright (c) Steve Scherf et al.
# Submitted via: ExactAudioCopy v1.1
#
DISCID=a011031d
DTITLE=Various Artist - The Bakersfield Sound (Bear Family) - Disc 8
DYEAR=2019
DGENRE=Country
TTITLE0=Merle Haggard and The Strangers - Mama Tried (live) (stereo)
TTITLE1=The Strangers - Stealin' Corn (stereo)
TTITLE2=Truitt Cunningham - Forgive And Forget (stereo)
TTITLE3=Buck Owens and Susan Raye - Cryin' Time (stereo)
TTITLE4=Buck Owens and His Buckaroos - Bring Back My Peace of Mind (ster
TTITLE4=eo)
TTITLE5=The Sanland Brothers - Cowboy Convention (stereo)
TTITLE6=Don Rich and The Buckaroos - Guitar Pickin' Man (stereo)
TTITLE7=Don Rich and The Buckaroos - Your Heart Turned Left (And I Was O
TTITLE7=n The Right) (stereo)
TTITLE8=Buddy Alan - A Whole Lot Of Nothing (stereo)
TTITLE9=Merle Haggard and The Strangers - I'm A Good Loser (stereo)
TTITLE10=Bobby Wayne and The Strangers - California On My Mind (stereo)
TTITLE11=Buck Owens - Reno Lament (stereo)
TTITLE12=The Haggers - Your Tender Loving Care (stereo)
TTITLE13=Henry Sharpe - There Is No Easy Way (stereo)
TTITLE14=Lewis Talley - Because You Can't Be Mine (stereo)
TTITLE15=Mike Beagles - She Don't Care Now (mono)
TTITLE16=Dave Price - Night Life Is My Weakness (mono)
TTITLE17=Merle Haggard and The Strangers - Daddy Frank (The Guitar Man) 
TTITLE17=(stereo)
TTITLE18=Sharon Haley - Heartbreak Mountain (stereo)
TTITLE19=Mayf Nutter - Never Ending Song Of Love (stereo)
TTITLE20=Tony Booth - Cinderella (stereo)
TTITLE21=Red Simpson - I'm A Truck (mono)
TTITLE22=Johnny Campbell - Mr. Conscience (mono)
TTITLE23=Vancie Flowers - How Dark Is My Journey (mono)
TTITLE24=Merle Haggard and The Strangers - Bring It On Down To My House 
TTITLE24=(stereo)
TTITLE25=Kenni Huskey - Number One Heel (stereo)
TTITLE26=xx
TTITLE27=Merle Haggard and The Strangers - I'm Tired Of Your Understandi
TTITLE27=ng Ways (stereo)
TTITLE28=Kenny Vernon - I Bought The Shoes (That Just Walked Out On Me
TTITLE28=) (stereo)
EXTD=
EXTT0=
EXTT1=
EXTT2=
EXTT3=
EXTT4=
EXTT5=
EXTT6=
EXTT7=
EXTT8=
EXTT9=
EXTT10=
EXTT11=
EXTT12=
EXTT13=
EXTT14=
EXTT15=
EXTT16=
EXTT17=
EXTT18=
EXTT19=
EXTT20=
EXTT21=
EXTT22=
EXTT23=
EXTT24=
EXTT25=
EXTT26=
EXTT27=
EXTT28=
PLAYORDER=
